<?xml version="1.0" standalone="no"?>
<!DOCTYPE svg PUBLIC "-//W3C//DTD SVG 20010904//EN"
 "http://www.w3.org/TR/2001/REC-SVG-20010904/DTD/svg10.dtd">
<svg version="1.0" xmlns="http://www.w3.org/2000/svg"
 width="1280.000000pt" height="1076.000000pt" viewBox="0 0 1280.000000 1076.000000"
 preserveAspectRatio="xMidYMid meet">
<g transform="translate(0.000000,1076.000000) scale(0.100000,-0.100000)"
fill="#000000" stroke="none">
<path d="M2702 8070 l-2694 -2690 2684 -2690 2683 -2690 1493 0 c870 0 1492 4
1490 9 -1 5 -826 839 -1833 1853 -2350 2367 -2306 2323 -2298 2331 3 4 1928 7
4278 7 3308 0 4274 3 4283 12 9 9 12 289 12 1200 l0 1188 -4260 0 c-3128 0
-4260 3 -4260 11 0 6 499 514 1108 1128 2208 2224 2977 3001 2980 3011 3 7
-512 10 -1485 10 l-1488 -1 -2693 -2689z"/>
</g>
</svg>
